HIERARCHY
ROOT Hips
{
	OFFSET -3.958830 18.904000 13.208200
	CHANNELS 6 Xposition Yposition Zposition Zrotation Yrotation Xrotation 
	JOINT LHipJoint
	{
		OFFSET 0.000000 0.000000 0.000000
		CHANNELS 3 Zrotation Yrotation Xrotation
		JOINT LeftUpLeg
		{
			OFFSET 1.800000 -1.400000 0.085000
			CHANNELS 3 Zrotation Yrotation Xrotation
			JOINT LeftLeg
			{
				OFFSET 2.215000 -6.000000 0.000000
				CHANNELS 3 Zrotation Yrotation Xrotation
				JOINT LeftFoot
				{
					OFFSET 2.500000 -6.900000 0.000000
					CHANNELS 3 Zrotation Yrotation Xrotation
					JOINT LeftToeBase
					{
						OFFSET 0.200000 -0.500000 1.950000
						CHANNELS 3 Zrotation Yrotation Xrotation
						End Site
						{
							OFFSET 0.000000 0.000000 0.000000
						}
					}
				}
			}
		}
	}
	JOINT RHipJoint
	{
		OFFSET 0.000000 0.000000 0.000000
		CHANNELS 3 Zrotation Yrotation Xrotation
		JOINT RightUpLeg
		{
			OFFSET -1.800000 -1.400000 0.085000
			CHANNELS 3 Zrotation Yrotation Xrotation
			JOINT RightLeg
			{
				OFFSET -2.215000 -6.000000 0.000000
				CHANNELS 3 Zrotation Yrotation Xrotation
				JOINT RightFoot
				{
					OFFSET -2.500000 -6.900000 0.000000
					CHANNELS 3 Zrotation Yrotation Xrotation
					JOINT RightToeBase
					{
						OFFSET -0.200000 -0.500000 1.950000
						CHANNELS 3 Zrotation Yrotation Xrotation
						End Site
						{
							OFFSET 0.000000 0.000000 0.000000
						}
					}
				}
			}
		}
	}
	JOINT LowerBack
	{
		OFFSET 0.000000 0.000000 0.000000
		CHANNELS 3 Zrotation Yrotation Xrotation
		JOINT Spine
		{
			OFFSET -0.087000 1.940000 -0.288900
			CHANNELS 3 Zrotation Yrotation Xrotation
			JOINT Spine1
			{
				OFFSET 0.000000 1.950000 0.060000
				CHANNELS 3 Zrotation Yrotation Xrotation
				JOINT Neck
				{
					OFFSET 0.000000 0.000000 0.000000
					CHANNELS 3 Zrotation Yrotation Xrotation
					JOINT Neck1
					{
						OFFSET 0.000000 1.600000 0.340000
						CHANNELS 3 Zrotation Yrotation Xrotation
						JOINT Head
						{
							OFFSET 0.000000 1.667000 -0.240000
							CHANNELS 3 Zrotation Yrotation Xrotation
							End Site
							{
								OFFSET 0.000000 0.000000 0.000000
							}
						}
					}
				}
				JOINT LeftShoulder
				{
					OFFSET 0.000000 0.000000 0.000000
					CHANNELS 3 Zrotation Yrotation Xrotation
					JOINT LeftArm
					{
						OFFSET 2.700000 1.550000 -0.730000
						CHANNELS 3 Zrotation Yrotation Xrotation
						JOINT LeftForeArm
						{
							OFFSET 5.450000 0.000000 0.000000
							CHANNELS 3 Zrotation Yrotation Xrotation
							JOINT LeftHand
							{
								OFFSET 3.450000 0.000000 0.000000
								CHANNELS 3 Zrotation Yrotation Xrotation
								JOINT LeftHandIndex1
								{
									OFFSET 0.750000 0.000000 0.000000
									CHANNELS 3 Zrotation Yrotation Xrotation
									End Site
									{
										OFFSET 0.000000 0.000000 0.000000
									}
								}
							}
						}
					}
				}
				JOINT RightShoulder
				{
					OFFSET 0.000000 0.000000 0.000000
					CHANNELS 3 Zrotation Yrotation Xrotation
					JOINT RightArm
					{
						OFFSET -2.700000 1.550000 -0.730000
						CHANNELS 3 Zrotation Yrotation Xrotation
						JOINT RightForeArm
						{
							OFFSET -5.450000 0.000000 0.000000
							CHANNELS 3 Zrotation Yrotation Xrotation
							JOINT RightHand
							{
								OFFSET -3.450000 0.000000 0.000000
								CHANNELS 3 Zrotation Yrotation Xrotation
								JOINT RightHandIndex1
								{
									OFFSET -0.750000 0.000000 0.000000
									CHANNELS 3 Zrotation Yrotation Xrotation
									End Site
									{
										OFFSET 0.000000 0.000000 0.000000
									}
								}
							}
						}
					}
				}
			}
		}
	}
}
MOTION
Frames: 13
Frame Time: 0.016667
2.727120 16.042700 -0.125990 -2.534097 8.157031 2.372593 -15.240954 12.712096 3.415934 -1.926097 -6.241409 -27.064793 3.720466 4.572258 36.595768 -0.347270 5.506536 2.556324 0.108950 -0.160380 0.215240 18.335652 -9.397114 4.428549 3.238299 7.895501 -43.678920 -0.539088 -1.565507 5.179150 0.190400 -0.518759 4.089563 -0.073250 0.118490 0.091200 -3.694973 -2.148908 -8.598784 8.388500 -4.615761 20.214447 -6.603393 -2.248173 -6.256257 3.655439 -2.633091 -5.952226 -5.861863 1.126391 33.917712 -1.162370 0.798940 -18.328020 -31.793903 -3.303011 -0.990666 -49.123523 -5.208614 -5.889107 3.595091 -20.570598 -2.087740 -3.668067 2.632738 0.700560 -0.088530 0.087240 -0.017630 24.040027 5.864096 3.269341 63.595114 2.879541 -14.584322 7.039725 40.058746 -0.350377 2.185185 -1.026053 -0.314300 0.281800 0.151920 -0.229450 
2.690720 15.991910 -0.117590 -2.834295 6.711219 3.008976 -15.268295 12.516092 3.448292 -0.808212 -6.623685 -28.622575 3.086606 5.227901 38.580655 -0.262573 5.917292 2.395897 0.113840 -0.148740 0.205170 18.350299 -9.162881 4.547908 1.794387 8.189492 -44.269168 2.053327 -1.236610 -1.106274 0.177127 -0.530989 4.092811 -0.077380 0.119260 0.101130 -3.652117 -2.109288 -8.723386 8.061607 -3.903187 19.869671 -5.872561 -1.680242 -6.702410 3.414821 -2.878987 -5.577654 -6.213863 1.411737 33.738458 -0.694990 0.848240 -18.637080 -31.519980 -1.989616 -1.631556 -50.856432 -6.113535 -5.617953 6.992989 -20.418844 -2.570426 -3.689496 2.617579 0.691460 -0.089460 0.090260 -0.013570 24.278708 4.965803 2.877404 63.767830 3.074553 -14.532619 4.830078 40.667245 -0.824949 2.174364 -1.021174 -0.295410 0.270450 0.150320 -0.218420 
2.657500 15.973160 -0.108720 -3.458596 5.694677 3.306120 -15.260082 12.390324 3.411708 0.390216 -6.681318 -29.411218 2.737253 5.638123 39.423556 -0.242353 6.149690 2.310753 0.098360 -0.167920 0.190440 18.383823 -8.996465 4.680093 0.291046 8.497577 -44.836126 3.891781 -0.872301 -5.093310 0.148411 -0.655109 4.047909 -0.083000 0.136390 0.100870 -3.701375 -2.052031 -8.811653 8.654538 -3.650538 19.555282 -5.809848 -1.336836 -6.668903 3.338702 -3.158013 -5.568882 -6.673736 1.753712 33.846322 -0.357090 0.866150 -18.732610 -31.554834 -1.934671 -1.749439 -51.501610 -6.596411 -5.468164 9.741097 -20.129639 -2.961502 -3.705682 2.590890 0.700620 -0.088080 0.087940 -0.011920 24.389304 5.232944 2.922380 63.986064 3.330586 -14.688319 2.102327 40.767648 -1.580605 2.155406 -0.995147 -0.308900 0.286580 0.164500 -0.215580 
2.629460 15.982650 -0.105410 -4.179614 4.879021 3.356719 -15.228388 12.344186 3.324293 1.481210 -6.465577 -29.444808 2.415997 5.862999 39.105867 -0.238333 6.124728 2.304151 0.128380 -0.126290 0.198980 18.423460 -8.917179 4.801046 -1.308897 8.682176 -45.770420 4.870017 -0.665221 -6.469967 0.120603 -0.737680 4.010081 -0.067310 0.121070 0.106080 -3.798853 -1.977748 -8.841945 9.627024 -3.664677 19.262572 -6.052931 -1.185815 -6.011019 3.350428 -3.224638 -5.866807 -6.815465 2.175230 34.245939 0.153830 1.041810 -18.526530 -31.282784 -2.937270 -1.396224 -51.897984 -7.050880 -5.334102 12.318901 -19.195139 -3.253058 -3.697851 2.620961 0.689690 -0.095490 0.098420 -0.003030 24.023218 6.295076 3.206431 64.686947 3.860108 -14.867490 -0.678033 40.231247 -2.511893 2.147047 -1.008001 -0.284180 0.270370 0.145710 -0.207130 
2.592360 16.020480 -0.103920 -4.833800 4.424885 2.902995 -15.196917 12.441996 3.198092 2.735545 -5.994385 -28.557819 1.859680 6.061723 37.860646 -0.270304 5.955981 2.346195 0.168920 -0.065000 0.213870 18.434941 -8.947855 4.847443 -2.565901 8.536750 -46.210667 4.766580 -0.699713 -5.933442 0.100372 -0.741078 3.998496 -0.038760 0.096300 0.102540 -3.858162 -2.001082 -8.816019 10.245338 -3.839959 19.296676 -5.819998 -1.213428 -4.847549 3.131152 -3.321899 -6.522566 -7.250502 2.580415 35.304055 0.727590 1.091130 -18.763300 -30.333254 -4.914789 -0.596087 -52.512329 -7.697738 -5.007751 13.999212 -17.545502 -3.361544 -3.677571 2.643089 0.691430 -0.113490 0.122220 0.007370 23.550716 8.309123 3.735313 65.081999 4.664741 -15.007731 -3.648571 39.096116 -3.517499 2.138436 -1.012614 -0.262590 0.269580 0.122000 -0.199730 
2.551950 16.092440 -0.101890 -5.501502 5.019779 1.798888 -15.156106 12.685281 3.025461 3.727532 -5.364420 -26.553143 1.683513 5.804710 35.331873 -0.362464 5.543406 2.480661 0.209340 -0.011970 0.251770 18.421128 -9.123716 4.788085 -3.866023 7.793178 -45.558061 3.854450 -0.910005 -4.455780 0.077902 -0.747609 3.976132 -0.006520 0.065180 0.095350 -3.908594 -2.085944 -8.729473 10.900200 -4.398637 19.436242 -5.705441 -1.590079 -2.629469 3.089470 -3.099716 -7.828673 -7.301960 2.823251 37.270526 0.765760 1.248170 -18.707270 -28.788793 -8.770857 1.046799 -53.088619 -8.316027 -4.752693 15.123247 -15.605014 -3.394484 -3.651715 2.663835 0.707310 -0.132290 0.151870 0.006210 22.201618 11.882357 4.796765 65.832073 5.929536 -15.110689 -6.830990 36.913529 -4.601866 2.131398 -1.016111 -0.254690 0.280400 0.102180 -0.207390 
2.505300 16.171000 -0.088550 -5.980724 6.134789 1.421343 -15.130039 12.864889 2.878136 4.539440 -4.823442 -24.915509 1.380829 5.440976 31.782816 -0.477681 5.015942 2.675117 0.209810 -0.012390 0.255360 18.403933 -9.307095 4.701822 -5.815941 6.852887 -45.277972 3.169359 -1.226033 -2.159939 0.085407 -0.827078 3.940803 0.006430 0.082370 0.104800 -3.940365 -2.090502 -8.599853 11.174006 -4.833185 18.789915 -5.539899 -2.100359 -1.009185 3.079467 -2.440390 -8.494097 -6.148832 2.634963 37.506521 0.414360 1.472070 -17.517490 -27.021579 -10.944001 2.105713 -53.582247 -8.842427 -4.463436 14.852602 -15.070437 -3.374929 -3.679480 2.678502 0.690240 -0.101190 0.137750 0.003090 20.539711 13.385594 5.184669 66.929690 7.051511 -14.605639 -8.692100 34.775083 -5.088945 2.122757 -1.036160 -0.259660 0.281840 0.109520 -0.212800 
2.452440 16.260630 -0.060740 -6.575736 7.273857 1.539841 -15.104993 13.025760 2.732823 5.381884 -4.209056 -23.372680 1.166895 4.963878 27.343109 -0.563607 4.378221 2.924882 0.194080 -0.018960 0.229690 18.389615 -9.499312 4.599478 -7.856664 5.975286 -44.904101 2.822896 -1.582468 0.598526 0.095751 -0.958914 3.888849 0.005870 0.113940 0.117180 -3.976994 -2.062216 -8.445421 11.505955 -5.115998 17.722332 -4.961099 -2.565136 -0.381889 2.853377 -1.882993 -8.637603 -5.013670 2.419437 36.760317 0.167060 1.701670 -15.810090 -25.568737 -11.420181 2.644039 -54.154984 -8.819505 -4.339665 13.345412 -15.735928 -3.288532 -3.704999 2.708216 0.642640 -0.061110 0.110820 0.011390 19.582446 13.271487 5.027704 67.206413 7.519533 -13.662308 -9.536963 32.307005 -5.021766 2.144422 -1.074186 -0.251700 0.265250 0.112540 -0.197220 
2.401330 16.346990 -0.026120 -7.069492 8.510607 1.821576 -15.093721 13.140584 2.632947 6.171696 -3.709379 -21.828352 0.576591 4.603031 22.708861 -0.649115 3.858353 3.146064 0.171180 -0.050130 0.205170 18.370278 -9.637778 4.475602 -10.379108 4.986538 -43.953665 3.320401 -1.941869 2.476257 0.096510 -1.184068 3.805321 0.000910 0.154410 0.119180 -3.988734 -2.086018 -8.312638 11.729777 -5.315999 16.538284 -3.926312 -3.017045 -0.231079 2.400896 -1.655835 -8.557830 -4.534743 2.277491 35.832295 -0.094290 1.764640 -14.266830 -23.858179 -10.941966 2.829394 -55.243198 -8.884013 -4.043929 10.769132 -16.628647 -3.096846 -3.732867 2.716582 0.613740 -0.024230 0.070750 0.017730 18.831713 12.416561 4.645527 66.874206 7.621833 -12.525767 -9.816236 29.604106 -4.642764 2.166802 -1.099002 -0.267570 0.262460 0.125180 -0.193350 
2.346730 16.434630 0.009260 -7.547324 9.417716 2.303117 -15.099806 13.165009 2.608256 7.234205 -3.401995 -20.739270 -0.612068 4.499419 18.690862 -0.677564 3.552759 3.281294 0.148050 -0.069250 0.182280 18.346596 -9.731605 4.339964 -12.583773 4.148664 -42.744281 3.912594 -2.269365 3.739896 0.094877 -1.420576 3.720855 -0.004060 0.186800 0.126850 -3.958475 -2.069163 -8.222518 11.577762 -5.209063 15.356268 -2.577878 -3.244774 -0.212960 1.959919 -1.075082 -8.433231 -3.380126 1.894023 34.696870 -0.554280 2.016340 -12.830400 -22.175825 -10.204524 2.998916 -56.207022 -8.723956 -4.096202 7.418969 -18.770506 -2.885309 -3.759283 2.733392 0.568560 0.017300 0.038240 0.021500 18.112904 11.173347 4.147458 66.281258 7.558034 -11.321851 -9.240938 27.023623 -4.074577 2.199825 -1.125336 -0.268170 0.248520 0.130810 -0.184310 
2.295760 16.517110 0.034350 -8.402738 9.787168 2.796018 -15.086644 13.119447 2.628460 8.604838 -3.243027 -20.097789 -1.916403 4.502585 15.602524 -0.701137 3.454552 3.344215 0.136420 -0.092680 0.188090 18.350604 -9.810440 4.208134 -13.997266 3.668502 -41.553883 4.290821 -2.527341 4.689805 0.090141 -1.591617 3.663437 -0.003890 0.215500 0.129580 -3.984270 -1.964824 -8.155779 12.177143 -5.111082 14.397284 -1.713645 -3.289175 -0.260785 1.720343 -0.500797 -8.255105 -2.217689 1.411833 33.555952 -1.067680 2.219610 -12.216810 -21.001881 -9.372206 3.052222 -56.497127 -8.358623 -4.391593 3.846582 -21.402393 -2.584328 -3.777738 2.727077 0.554110 0.048530 0.016080 0.026320 17.412658 9.883989 3.653284 65.683427 7.565385 -10.268831 -8.589811 24.843394 -3.576515 2.220978 -1.131103 -0.288140 0.257270 0.130640 -0.190840 
2.241710 16.584300 0.052100 -9.198186 9.667001 3.434442 -15.082062 13.031774 2.680947 9.844743 -3.223315 -20.029018 -3.108753 4.573906 13.570542 -0.726358 3.479832 3.352488 0.099000 -0.136690 0.178300 18.356627 -9.852288 4.094654 -15.097817 3.354864 -40.565008 4.571664 -2.730933 5.282808 0.103552 -1.736851 3.621438 -0.008960 0.255230 0.121710 -3.990002 -1.848109 -8.104072 12.585345 -4.850616 13.573327 -1.002383 -3.168213 -0.235721 1.603220 0.060117 -8.179851 -1.049131 1.056897 32.118145 -1.883010 2.662290 -11.569980 -18.915691 -8.255258 3.097380 -57.112958 -7.838059 -4.825585 -0.406392 -24.337290 -2.043964 -3.818180 2.715143 0.537200 0.091580 -0.020940 0.014140 15.552520 8.359547 3.255645 65.919307 7.524696 -9.437953 -6.941718 23.269338 -3.037423 2.229574 -1.120234 -0.323420 0.277140 0.153920 -0.203920 
2.178950 16.626240 0.080920 -9.884348 9.318342 4.681105 -15.076008 12.869447 2.718773 10.920432 -3.300646 -20.388768 -4.073252 4.589718 11.932942 -0.725183 3.513624 3.358746 0.086240 -0.152520 0.153950 18.389014 -9.834037 4.017783 -16.057095 3.221764 -39.927925 5.056928 -2.823818 5.259189 0.119729 -1.888975 3.572822 0.000190 0.312260 0.130740 -4.028049 -1.677837 -8.005795 12.851381 -4.516773 12.032510 -0.092487 -3.104140 -0.544748 1.097792 0.299563 -7.686994 -0.358153 1.113879 29.574925 -1.762100 2.865120 -10.339360 -16.213048 -5.553278 2.786540 -58.328692 -7.105924 -5.026266 -6.125267 -27.298267 -0.959966 -3.864206 2.784525 0.486380 0.144190 -0.072730 0.028180 13.863357 5.382003 2.270473 66.067790 7.383547 -8.402027 -4.903463 21.532202 -2.494551 2.252117 -1.149795 -0.335050 0.273710 0.161030 -0.192820 
